<svg width="32" height="32" viewBox="0 0 32 32" fill="none" xmlns="http://www.w3.org/2000/svg">
<path d="M23.5895 14.8314C23.4516 14.7653 23.3116 14.7017 23.1698 14.6409C22.9228 10.0897 20.436 7.48417 16.2603 7.4575C16.2414 7.45738 16.2225 7.45738 16.2036 7.45738C13.706 7.45738 11.6288 8.52348 10.3503 10.4635L12.6468 12.0388C13.6019 10.5897 15.1008 10.2808 16.2047 10.2808C16.2175 10.2808 16.2303 10.2808 16.2429 10.2809C17.6178 10.2897 18.6553 10.6894 19.3268 11.469C19.8155 12.0366 20.1423 12.8208 20.3041 13.8106C19.0851 13.6035 17.7668 13.5398 16.3575 13.6206C12.3874 13.8492 9.83514 16.1646 10.0066 19.382C10.0935 21.014 10.9066 22.418 12.2958 23.3352C13.4704 24.1105 14.9831 24.4897 16.5553 24.4038C18.6316 24.29 20.2605 23.4978 21.3968 22.0493C22.2598 20.9493 22.8056 19.5238 23.0466 17.7277C24.0361 18.3248 24.7695 19.1107 25.1745 20.0553C25.8631 21.6612 25.9033 24.3 23.7501 26.4513C21.8636 28.336 19.596 29.1513 16.1689 29.1765C12.3673 29.1483 9.49226 27.9292 7.62298 25.5528C5.87254 23.3277 4.96791 20.1137 4.93416 16C4.96791 11.8863 5.87254 8.67227 7.62298 6.44712C9.49226 4.07082 12.3673 2.85167 16.1688 2.82342C19.998 2.85188 22.9231 4.0769 24.864 6.46467C25.8156 7.6356 26.5331 9.10813 27.0061 10.8251L29.6973 10.107C29.124 7.9937 28.2218 6.17262 26.9941 4.66233C24.506 1.60111 20.867 0.0325247 16.1782 0H16.1594C11.4802 0.0324117 7.88198 1.60697 5.46468 4.67988C3.31361 7.4144 2.20403 11.2193 2.16674 15.9888L2.16663 16L2.16674 16.0112C2.20403 20.7807 3.31361 24.5857 5.46468 27.3202C7.88198 30.393 11.4802 31.9677 16.1594 32H16.1782C20.3383 31.9712 23.2706 30.882 25.6863 28.4685C28.8468 25.311 28.7516 21.3532 27.71 18.9235C26.9626 17.1812 25.5378 15.766 23.5895 14.8314ZM16.4067 21.5845C14.6667 21.6825 12.859 20.9015 12.7699 19.2287C12.7038 17.9883 13.6526 16.6043 16.5135 16.4395C16.8411 16.4206 17.1626 16.4113 17.4785 16.4113C18.5176 16.4113 19.4898 16.5123 20.3736 16.7055C20.044 20.8225 18.1103 21.491 16.4067 21.5845Z" fill="#757575"/>
</svg>
